<?xml version="1.0" encoding="UTF-8"?>
<svg id="Layer_1" xmlns="http://www.w3.org/2000/svg" version="1.1" viewBox="0 0 69.5 84.3" fill="currentColor">
  <!-- Generator: Adobe Illustrator 30.2.1, SVG Export Plug-In . SVG Version: 2.1.1 Build 1)  -->
  <path d="M34,2.7L2.2,57.7h0c-1.6,2.7-2,6-1.2,9,.8,3.1,2.8,5.7,5.6,7.2l13.8,7.9h0c2.7,1.6,6,2,9,1.2,3.1-.8,5.7-2.8,7.2-5.6l31.8-55c1.1-1.9.4-4.3-1.4-5.4L39.4,1.3c-1.9-1.1-4.3-.4-5.4,1.5h0ZM39.2,5.8l24.1,13.9h0c.9.5,1.2,1.7.7,2.5l-23.9,41.5c-.5.9-1.7,1.2-2.5.7l-24.1-13.9c-.5-.3-.8-.7-1-1.3-.1-.5,0-1.1.2-1.6L36.4,6.5c.3-.5.7-.8,1.3-1,.5-.1,1.1,0,1.6.2h0ZM11.4,53.9l24.1,13.9h0c.9.5,1.2,1.7.7,2.5l-3,5.3c-2.2,3.8-7,5.1-10.8,2.9l-13.7-7.9c-3.8-2.2-5.1-7-2.9-10.8l2.9-5.1c.3-.5.7-.8,1.3-1,.5-.1,1.1,0,1.6.2h0Z"/>
</svg>