<?xml version="1.0" encoding="UTF-8"?>
<svg id="Layer_1" xmlns="http://www.w3.org/2000/svg" version="1.1" viewBox="0 0 16 16" fill="currentColor">
  <!-- Generator: Adobe Illustrator 30.2.1, SVG Export Plug-In . SVG Version: 2.1.1 Build 1)  -->
  <defs>
    <style>
      .st0 {
        display: none;
      }
    </style>
  </defs>
  <g class="st0">
    <path d="M8,2c-3.3,0-6,2.7-6,6s2.7,6,6,6,6-2.7,6-6-2.7-6-6-6ZM9,11c0,.6-.4,1-1,1s-1-.4-1-1v-3c0-.6.4-1,1-1s1,.4,1,1v3ZM8,6c-.6,0-1-.4-1-1s.4-1,1-1,1,.4,1,1-.4,1-1,1Z"/>
  </g>
  <g>
    <path d="M9,11c0,.6-.4,1-1,1s-1-.4-1-1v-3c0-.6.4-1,1-1s1,.4,1,1v3ZM8,6c-.6,0-1-.4-1-1s.4-1,1-1,1,.4,1,1-.4,1-1,1Z"/>
    <path d="M8,16C3.6,16,0,12.4,0,8S3.6,0,8,0s8,3.6,8,8-3.6,8-8,8ZM8,2c-3.3,0-6,2.7-6,6s2.7,6,6,6,6-2.7,6-6-2.7-6-6-6Z"/>
  </g>
</svg>