<?xml version="1.0" encoding="UTF-8"?>
<svg id="Layer_1" xmlns="http://www.w3.org/2000/svg" version="1.1" viewBox="0 0 46.7 82.8" fill="currentColor">
  <!-- Generator: Adobe Illustrator 30.2.1, SVG Export Plug-In . SVG Version: 2.1.1 Build 1)  -->
  <path d="M43.6.4c-.4-.4-1-.7-1.6-.7H4.9c-.6,0-1.2.2-1.6.6s-.6,1-.6,1.6l1.2,24.3c0,.7.4,1.3.9,1.7v-5.6c0-.5.4-.9.9-.9h2.3s-.9-17.3-.9-17.3h32.5c0,0-.9,17.3-.9,17.3h2.3c.5,0,.9.4.9.9v5.6c.5-.4.9-1,.9-1.7l1.3-24.3c0-.6-.2-1.2-.6-1.6h0Z"/>
  <path d="M23.3,83.1c-2.4,0-4.7-1-6.3-2.8-1.6-1.7-2.5-4.1-2.3-6.5l.9-14.6c.3-4.3-1.5-8.4-4.8-11.1l-5.5-4.5c-1.7-1.4-2.6-3.5-2.6-5.6v-7.9c0-1.5,1.2-2.7,2.8-2.7h36c1.5,0,2.7,1.3,2.7,2.8v7.9c0,2.2-1,4.2-2.7,5.6l-5.5,4.5c-3.3,2.7-5.1,6.9-4.8,11.1l.9,14.6c.1,2.4-.7,4.8-2.4,6.5-1.6,1.7-4,2.7-6.4,2.7h0ZM7,31.7v6.3c0,.9.4,1.7,1,2.2l5.5,4.5c4.4,3.6,6.8,9.1,6.4,14.8l-.9,14.6c0,1.2.3,2.4,1.2,3.2.8.9,1.9,1.4,3.1,1.4s2.3-.5,3.2-1.4c.8-.9,1.2-2,1.2-3.2l-.9-14.6c-.3-5.7,2.1-11.2,6.4-14.8l5.5-4.5c.7-.6,1.1-1.4,1.1-2.2v-6.3s-32.8,0-32.8,0Z"/>
  <path d="M42,33.4H4.8c-1.2,0-2.2-1.1-2.2-2.3v-8.8c0-1.7,1.4-3.1,3.1-3.1h35.3c1.7,0,3.1,1.5,3.1,3.2v8.8c0,1.2-1,2.2-2.2,2.2h0ZM7,28.9h32.8c0,0,0-5.3,0-5.3H7c0,0,0,5.3,0,5.3Z"/>
  <path d="M14.1,23.5c-1.2,0-2.2-1-2.2-2.2V1.9c0-1.2,1-2.2,2.2-2.2s2.2,1,2.2,2.2v19.5c0,1.2-1,2.2-2.2,2.2Z"/>
  <path d="M23.5,23.6c-1.2,0-2.2-1-2.2-2.2V1.9c0-1.2,1-2.2,2.2-2.2s2.2,1,2.2,2.2v19.5c0,1.2-1,2.2-2.2,2.2Z"/>
  <path d="M32.6,23.6c-1.2,0-2.2-1-2.2-2.2V1.9c0-1.2,1-2.2,2.2-2.2s2.2,1,2.2,2.2v19.5c0,1.2-1,2.2-2.2,2.2Z"/>
</svg>